# xmcd CD database file
#
# Track frame offsets:
#	150
#	22009
#	41761
#	63729
#	80327
#	94822
#	103401
#	106389
#	136592
#	155975
#	168347
#	184818
#	205427
#	218994
#	232226
#	262929
#	290952
#	314566
#
# Disc length: 4433 seconds
#
# Revision: 1
# Processed by: cddbd v1.5.1PL2 Copyright (c) Steve Scherf et al.
# Submitted via: CDex 1.51
#
DISCID=1d114f12
DTITLE=Mr Scruff - Happy New Ear
DYEAR=2001
DGENRE=Jazz
TTITLE0=native force - rain
TTITLE1=spacek - countdown
TTITLE2=etienne de crecy - tempovision
TTITLE3=bonobo - magician
TTITLE4=jaffa - elevator
TTITLE5=marshmellow mike - shorty the pimp
TTITLE6=onecut the vibe
TTITLE7=larry youngs fuel - turn off the lights
TTITLE8=the allenko brotherhood ensemble - the man with the drum
TTITLE9=new sector movements - rocana hard place
TTITLE10=treva whateva - driving reign
TTITLE11=georg levin - when im with u
TTITLE12=jessica lauren - teratoid
TTITLE13=bougie soliterre - got the bug
TTITLE14=julien jabre - sun is back
TTITLE15=charlie watts jim keltner project - airto (modaji mix)
TTITLE16=viktor duplaix - manhood (accapella)
TTITLE17=grady tate - moondance
EXTD=YEAR: 2001
EXTT0=
EXTT1=
EXTT2=
EXTT3=
EXTT4=
EXTT5=
EXTT6=
EXTT7=
EXTT8=
EXTT9=
EXTT10=
EXTT11=
EXTT12=
EXTT13=
EXTT14=
EXTT15=
EXTT16=
EXTT17=
PLAYORDER=
